<svg width="114" height="248" viewBox="0 0 114 248" fill="none" xmlns="http://www.w3.org/2000/svg">
<path d="M54.1732 46.4183C54.3097 43.7561 54.5145 40.5477 50.1448 41.5034C44.751 42.7321 20.0349 47.647 11.0907 49.4901C7.74518 50.1727 1.46372 51.1966 0.917512 53.7223C0.303024 56.6576 2.96584 57.1355 5.56035 57.272C13.0025 57.7498 35.8751 56.7941 43.9317 56.1798C49.5304 55.8385 53.9001 50.241 54.1732 46.4183Z" fill="#367AD1"/>
<path d="M44.6827 13.2429C44.1365 11.468 42.0882 11.1267 40.7227 12.3555C38.9475 13.9255 2.69271 49.2853 1.60029 50.7871C0.57614 52.1523 -0.0383817 53.6541 0.712659 55.2241C2.35129 58.7738 10.0665 56.5894 12.661 54.4732C15.3238 52.2889 43.4538 16.7925 44.2048 15.9051C45.0241 14.9494 45.0241 14.1985 44.6827 13.2429Z" fill="#367AD1"/>
<path d="M37.6504 52.0158C33.7586 53.5859 29.9351 55.3607 24.5413 54.8146C19.6254 54.2685 15.3922 54.132 10.4081 55.1559C7.81356 55.702 5.21907 55.9068 2.82939 54.7463C1.80525 54.2002 1.12247 53.108 0.507979 52.7667C0.234873 53.5859 0.23484 54.405 0.644499 55.2924C1.05416 56.2481 1.94175 56.7942 3.03417 56.999C3.78521 57.2038 4.60452 57.272 5.49211 57.3403C12.9342 57.8181 35.8069 56.8625 43.8635 56.2481C47.0725 56.0433 49.9401 53.9954 51.7836 51.6745C50.4863 49.5584 41.5421 50.4458 37.6504 52.0158Z" fill="#3448AD"/>
<path d="M77.0457 173.113C77.1823 164.171 77.3189 154.341 75.2023 147.378C74.0416 143.624 71.4471 142.122 67.4188 142.6C65.7801 142.805 63.3222 144.784 62.4346 149.153C61.3421 154.682 61.9567 163.488 62.2298 169.222C62.7077 179.393 67.0091 232.365 67.7602 242.399C68.1015 246.973 69.8767 247.86 71.4471 247.792C74.1782 247.655 74.7926 244.857 74.9974 242.126C75.2023 240.624 76.8409 185.468 77.0457 173.113Z" fill="#FEC1B5"/>
<path d="M61.6155 244.037C58.6114 225.948 48.4381 178.437 47.3457 174.41C46.3898 170.997 44.0002 166.765 40.4498 165.126C37.4456 163.693 33.827 165.604 32.9394 168.744C32.5297 170.246 33.2807 173.727 33.6904 175.161C36.4897 185.468 53.4223 239.464 54.9927 243.833C55.7437 245.949 57.6555 247.655 59.6355 247.451C61.1376 247.314 61.9569 245.881 61.6155 244.037Z" fill="#FEC1B5"/>
<path d="M77.0458 173.181C77.0458 174.751 76.9776 177.072 76.9093 179.871C71.1058 178.847 65.3022 178.711 63.0491 181.373C62.6394 175.912 62.3663 171.611 62.2298 169.359C61.9567 163.556 61.3421 154.75 62.4346 149.29C63.3222 144.852 65.7802 142.941 67.4188 142.736C71.4471 142.19 74.1099 143.692 75.2024 147.515C77.3189 154.409 77.2506 164.239 77.0458 173.181Z" fill="#E8988C"/>
<path d="M49.1209 182.124C43.9319 180.076 38.3333 179.325 35.3974 180.69C34.7146 178.301 34.1001 176.39 33.7587 175.093C33.3491 173.659 32.5981 170.178 33.0077 168.676C33.8953 165.536 37.4457 163.625 40.5181 165.058C44.0002 166.696 46.4581 170.929 47.414 174.342C47.5506 175.229 48.2333 178.028 49.1209 182.124Z" fill="#E8988C"/>
<path d="M82.0984 170.929C81.3474 167.242 80.3915 160.962 79.5039 156.116C78.8211 152.225 78.548 148.266 78.7528 144.716C79.2308 135.637 81.6887 128.128 79.4356 118.981C78.4115 114.749 76.6363 110.585 74.3831 106.626C72.8128 103.827 68.3748 100.55 65.0976 99.1168C61.0693 97.3419 58.0651 97.0689 53.832 97.5467C51.5106 97.8198 41.6787 97.3419 39.2891 97.6833C37.309 97.9563 35.4656 99.1168 35.056 100.687C33.4173 106.762 30.8911 115.773 29.1159 125.534C26.3166 140.893 24.678 158.505 24.678 170.724C24.678 174.888 26.7945 175.434 31.4373 175.912C37.5821 176.526 47.9602 176.594 56.2216 176.253C61.5472 176.048 65.5755 175.912 70.4232 175.57L72.6762 149.016L75.2025 175.229C76.9094 175.093 78.548 174.956 80.1866 174.751C82.5763 174.41 82.3715 172.43 82.0984 170.929Z" fill="#3448AD"/>
<path d="M82.0982 170.929C81.3471 167.242 80.3912 160.962 79.5036 156.116C78.8209 152.225 78.5478 148.266 78.7526 144.716C79.2306 135.637 81.6885 128.128 79.4354 118.981C78.4112 114.749 76.636 110.585 74.3829 106.626C72.8126 103.827 68.3746 100.55 65.0973 99.1167C65.0291 99.0485 64.8925 99.0485 64.8242 98.9802C65.029 100.277 66.9408 102.53 68.1698 104.509C70.4912 108.059 73.0174 115.09 73.0174 121.712C73.0174 127.377 71.2422 131.951 70.9008 137.617C70.4912 144.17 72.7443 149.016 72.7443 149.016L75.2705 175.229C76.9775 175.093 78.616 174.956 80.2547 174.751C82.5761 174.41 82.3713 172.43 82.0982 170.929Z" fill="#1F367A"/>
<path d="M77.6604 37.6807C71.3789 36.7933 59.2257 38.9094 54.5829 40.343C51.0325 41.4351 49.8035 41.7765 48.8477 43.7561C47.6187 46.35 46.7994 49.4218 45.9118 52.1523C45.0242 54.8145 44 57.6133 42.02 59.6612C40.2448 61.5042 37.9234 62.733 36.5579 65.0539C34.9875 67.7161 35.9435 70.4466 38.06 72.4262C38.9476 73.2453 40.6545 74.1328 40.9959 75.0202C41.3372 75.8393 40.9276 77.4776 40.6545 78.2968C39.0158 83.7577 36.2848 92.2223 35.1241 100.345C34.7144 103.349 36.8993 105.056 39.4938 105.602C42.2249 106.148 47.2091 106.489 51.9884 106.079C59.0892 105.397 65.6437 103.827 68.7844 102.53C70.3548 101.847 71.1058 101.574 70.6961 98.7072C70.4913 97.4102 69.4672 94.4749 68.7162 90.9253C68.3065 89.0822 68.8527 86.8978 69.4672 85.6008C71.2424 81.5051 77.1141 71.334 79.9134 62.733C81.6204 57.6133 84.2832 49.3536 84.2149 43.6195C84.1466 41.0938 82.7811 38.4316 77.6604 37.6807Z" fill="#367AD1"/>
<path d="M71.4472 37.476C70.7645 36.8616 67.0775 37.8173 65.9851 36.9981C64.6196 36.1107 64.7561 33.5168 64.8244 32.1515C64.8926 29.2845 67.4872 20.3422 66.6679 15.086C66.3948 13.1746 66.1216 12.1507 64.1416 12.0824C61.6154 12.0824 60.2499 12.0142 57.8602 11.0585C55.6071 10.2393 54.3781 9.4202 52.6712 7.71365C52.0567 7.09929 51.4422 6.14362 50.7595 6.28014C50.0084 6.41666 49.4622 7.57712 49.2574 8.80584C48.3698 13.789 50.4181 17.4069 52.8077 21.7074C53.7636 23.4822 54.9926 24.9157 56.6995 25.9397C58.3381 26.8953 57.9967 27.5097 58.065 28.6702C58.2698 31.0593 58.3381 34.4724 58.3381 36.6568C58.3381 37.5442 58.2016 38.3634 57.6554 38.8412C57.1774 39.3191 56.085 39.6604 55.3339 39.8652C54.856 40.0017 54.4464 40.343 54.1733 40.8208C53.2174 42.3909 52.6712 44.3705 52.2615 46.0088C51.7836 47.8518 51.4422 50.3093 51.8519 52.2206C52.2615 54.0637 54.105 54.6098 56.1533 54.2002C59.772 53.5176 63.1857 50.5141 64.8244 48.944C66.8727 47.101 70.3548 42.3909 71.2424 40.1382C71.652 39.2508 72.13 38.0221 71.4472 37.476Z" fill="#FEC1B5"/>
<path d="M51.5787 2.59397C50.0766 2.25265 47.9601 1.91135 46.3897 1.77482C45.7752 1.70656 45.2973 1.9796 45.1608 2.66223C44.7511 5.11967 44.478 7.57711 44.1366 9.01062C43.3856 9.7615 41.0642 11.8776 40.3814 12.6968C39.8352 13.3794 40.04 15.2225 40.9276 16.0416C41.6786 16.7243 43.4538 16.8608 44.2049 16.0416C45.0925 15.086 46.5945 13.7207 47.687 13.1746C48.7111 12.6285 48.0283 10.2393 48.5062 8.32799C48.9159 6.75796 50.2132 4.98314 51.1691 4.23226C52.1932 3.48138 52.6028 2.86701 51.5787 2.59397Z" fill="#FEC1B5"/>
<path d="M69.8085 65.7366C68.2382 67.2383 66.5995 68.467 64.6878 69.3544C61.2057 71.061 52.1249 70.788 46.3897 70.788C43.6586 70.788 41.3372 70.8562 39.2207 69.5592C37.582 68.5353 36.4213 66.5557 35.8068 66.897C35.5337 67.1018 35.4655 68.467 36.0117 69.764C36.5579 71.1293 37.5137 72.2215 38.5379 72.9723C39.6303 73.7232 40.6545 74.4059 40.9276 75.1567C41.0641 75.5663 41.4055 75.9759 42.2931 75.9759C43.7269 75.9759 49.3939 76.1124 52.1249 76.1124C55.4022 76.1124 60.796 76.1124 62.7078 76.1124C65.7119 76.1124 67.8968 74.4059 68.9892 73.1089C70.423 71.5388 71.5837 68.467 71.7886 66.1461C72.13 63.9617 70.8327 64.7809 69.8085 65.7366Z" fill="#3448AD"/>
<path d="M111.389 77.2046C105.586 68.3988 93.3641 50.241 87.4923 43.8926C85.444 41.7082 84.0102 39.8652 81.3474 38.7047C79.0943 37.749 76.0901 40.343 74.9294 41.9813C73.2908 44.507 73.4273 46.4183 74.1101 49.2853C74.7928 52.3571 77.8653 55.9068 80.2549 58.3642C83.8736 62.0504 97.5289 75.225 100.055 78.2285C101.899 80.3446 101.216 82.3243 98.6896 84.3039C92.8178 89.014 83.6005 95.4989 76.7046 100.55C74.6563 102.052 74.0418 103.076 74.1101 104.783C74.1784 107.308 77.3191 107.445 79.3674 106.284C86.0585 102.462 107.361 89.3553 110.228 87.1026C113.437 84.7134 113.984 81.1638 111.389 77.2046Z" fill="#367AD1"/>
<path d="M65.9167 21.2978C65.7119 19.523 65.0291 19.523 64.8243 20.3421C64.5512 21.5708 63.8684 22.9361 63.3905 23.5504C62.776 24.5061 61.7519 25.7348 60.5911 26.0079C59.089 26.4174 57.5869 25.5983 57.1773 26.0079C56.6311 26.554 57.3821 27.9192 58.1332 28.5336C59.2939 29.421 61.6153 29.4893 62.776 28.8749C65.3705 27.3731 66.1898 24.0965 65.9167 21.2978Z" fill="#E8988C"/>
<path d="M79.5719 30.1036C78.4795 27.1001 76.1582 24.6427 74.5878 21.9804C72.7443 18.8404 72.8126 14.6764 71.7885 11.195C70.9692 8.25973 69.3988 5.93881 67.6919 4.09573C65.5753 1.91134 62.6394 0 57.2455 0C52.4662 0 48.8475 3.00354 47.482 7.85016C46.4578 11.6046 48.0282 15.359 48.1647 19.6595C48.3013 24.4379 44.9558 29.0114 44.1365 32.8341C42.9075 38.2268 45.2972 40.616 46.8675 41.7082C47.2772 41.9813 48.0282 42.1178 48.4378 42.0495C50.8958 41.5717 55.1973 40.4112 57.1773 39.7286C57.7235 39.5238 58.5428 38.9777 58.6111 38.1586C58.8159 35.0185 58.5428 29.0114 58.4062 27.3049C58.3379 26.2127 58.4062 26.1444 57.6552 25.8714C57.109 25.6666 56.4262 25.3253 55.8117 24.8474C53.4903 22.9361 53.0124 19.8643 51.9199 18.0212C49.1206 13.4477 49.5986 9.28366 50.9641 7.30406C54.7193 11.2633 60.3863 12.6968 64.3463 12.9698C64.8243 12.9698 65.0973 13.2429 65.2339 13.8572C65.8484 15.9051 65.6436 21.093 64.4146 24.7792C63.3904 27.851 62.5028 32.3563 63.1173 35.7694C63.8001 39.319 66.5994 41.7765 70.2863 42.0495C74.0416 42.3226 79.1623 39.1143 79.9817 38.2268C81.0058 36.3838 80.5278 32.9024 79.5719 30.1036Z" fill="#1E2859"/>
<path d="M67.0775 14.7446C67.0092 16.0416 66.9409 17.0655 65.985 17.2021C65.0292 17.3386 64.1416 16.2464 63.9367 15.0177C63.7319 13.4477 64.4147 12.765 65.3023 12.492C66.5313 12.0824 67.0775 13.4477 67.0775 14.7446Z" fill="#FEC1B5"/>
<path d="M81.279 102.12C80.6645 100.482 79.4355 99.6629 78.4797 99.6629C77.8652 99.6629 77.1141 100.482 76.3631 100.55C73.8369 100.892 73.0859 99.0485 71.5155 97.615C70.0817 96.318 67.9652 97.7515 67.0093 98.2976C66.7362 98.5024 66.1899 98.6389 65.8485 98.7755C64.1416 99.1168 59.8403 100.141 59.5671 100.755C59.294 101.369 60.1816 102.598 60.9327 103.349C61.3423 103.759 63.5271 103.759 64.483 103.759C65.7803 103.759 67.3506 103.554 68.6478 103.759C69.9451 103.963 71.0375 104.441 72.0617 105.26C73.9051 106.762 75.2024 107.308 77.2507 107.308C78.1383 107.308 79.2307 106.557 80.05 106.08C81.1425 105.329 81.8935 103.759 81.279 102.12Z" fill="#FEC1B5"/>
<path d="M60.523 21.2295C60.4547 21.5708 59.7719 22.0487 58.6795 22.39C57.5871 22.7313 56.6995 22.5948 56.4947 22.3217C56.085 21.9122 57.2457 21.7756 58.4064 21.4343C59.4988 21.1613 60.7278 20.6834 60.523 21.2295Z" fill="#ED9898"/>
</svg>
