<svg width="25" height="24" viewBox="0 0 25 24" fill="none" xmlns="http://www.w3.org/2000/svg">
<g clip-path="url(#clip0_7_207)">
<path d="M12.9169 11.4962C15.0798 11.4962 16.8395 9.7315 16.8395 7.56241C16.8395 5.39332 15.0798 3.62866 12.9169 3.62866C10.754 3.62866 8.99426 5.39332 8.99426 7.56241C8.99426 9.7315 10.754 11.4962 12.9169 11.4962ZM12.9169 5.03472C14.3067 5.03472 15.4375 6.16868 15.4375 7.56241C15.4375 8.95619 14.3068 10.0901 12.9169 10.0901C11.527 10.0901 10.3963 8.95619 10.3963 7.56241C10.3963 6.16868 11.5271 5.03472 12.9169 5.03472Z" fill="#3448AD"/>
<path d="M8.64584 14.6311C9.70838 16.0738 9.28149 15.5128 12.342 19.8953C12.6202 20.2952 13.2117 20.2971 13.4915 19.896C16.5658 15.4926 16.1428 16.0503 17.188 14.6311C18.2468 13.1933 19.3418 11.7067 19.9418 9.9645C20.8102 7.44258 20.4348 4.94728 18.8849 2.93822C18.8848 2.93822 18.8848 2.93817 18.8848 2.93817C17.465 1.09838 15.2341 0 12.9169 0C10.5998 0 8.36883 1.09838 6.94904 2.93827C5.39914 4.94733 5.02376 7.44267 5.89221 9.96459C6.49211 11.7067 7.58704 13.1934 8.64584 14.6311ZM8.0579 3.7987C9.21405 2.30053 11.0305 1.40606 12.9169 1.40606C14.8033 1.40606 16.6198 2.30053 17.776 3.7987L17.7759 3.79866C19.0269 5.42016 19.3253 7.44694 18.6164 9.50559C18.0865 11.0444 17.0564 12.4431 16.0602 13.7958C15.2846 14.8489 15.5167 14.5268 12.9169 18.2645C10.3199 14.5305 10.5491 14.8486 9.77367 13.7958C8.77749 12.4431 7.74739 11.0444 7.21745 9.50559C6.50856 7.44689 6.80701 5.42016 8.0579 3.7987Z" fill="#3448AD"/>
<path d="M9.22156 17.6797C9.0148 17.3515 8.58184 17.2534 8.2545 17.4608L6.26122 18.7235C5.82639 18.9989 5.82597 19.6365 6.26122 19.9122L12.5425 23.8914C12.7712 24.0363 13.0626 24.0362 13.2913 23.8914L19.5726 19.9122C20.0075 19.6368 20.0078 18.9992 19.5726 18.7235L17.5793 17.4608C17.2519 17.2534 16.819 17.3515 16.6122 17.6797C16.4054 18.008 16.5032 18.4422 16.8305 18.6496L17.8856 19.3179L12.9169 22.4654L7.94824 19.3179L9.00326 18.6496C9.3306 18.4422 9.42832 18.008 9.22156 17.6797Z" fill="#3448AD"/>
</g>
<defs>
<clipPath id="clip0_7_207">
<rect width="23.9288" height="24" fill="white" transform="translate(0.952515)"/>
</clipPath>
</defs>
</svg>
