<svg width="106" height="157" viewBox="0 0 106 157" fill="none" xmlns="http://www.w3.org/2000/svg">
<path d="M99.7851 58.4607C96.4396 68.9731 89.4071 75.185 76.2298 78.3933C56.2931 83.3082 27.1391 81.0555 19.697 79.4855C13.4838 78.1885 6.38307 77.3011 2.62787 72.4545C-0.854221 67.9492 0.784429 62.6247 8.02172 59.826C16.6245 56.4129 44.6178 57.232 53.0158 50.7471C59.3655 45.8322 62.3014 31.5654 69.3339 19.1417C75.0691 9.03887 84.2182 -0.244775 93.0258 0.915683C108.661 2.89529 106.408 37.8455 99.7851 58.4607Z" fill="url(#paint0_linear_63_456)"/>
<path d="M99.7852 58.4607C96.4397 68.973 89.4072 75.1849 76.2298 78.3932C56.2931 83.3081 27.1391 81.0555 19.697 79.4854C13.4838 78.1885 6.38309 77.301 2.62789 72.4544C1.53547 71.0209 0.920997 69.4509 0.85272 67.9491C0.784444 64.809 2.55958 63.3073 7.20238 65.6965C12.5279 68.4952 28.5729 71.1574 44.0717 70.6114C58.8194 70.0653 75.274 64.7408 81.1458 57.4367C89.339 47.2657 89.8852 33.2036 87.3589 25.49C85.3789 19.4829 79.6437 13.8172 80.1216 9.38013C80.8044 2.62216 86.5396 0.028199 93.0259 0.847346C108.661 2.89521 106.408 37.8455 99.7852 58.4607Z" fill="url(#paint1_linear_63_456)"/>
<path d="M99.7852 58.4607C96.4396 68.9731 89.4071 75.185 76.2298 78.3933C56.2931 83.3082 27.1391 81.0555 19.697 79.4855C13.4838 78.1885 6.38307 77.3011 2.62786 72.4545C1.9451 71.4988 1.39884 70.5432 1.12573 69.5875C1.60367 68.2905 3.24232 68.0174 4.12991 68.4953C7.54373 70.4749 16.01 72.5227 30.1432 72.7958C50.6261 73.1371 70.4263 71.294 79.9167 65.2187C94.7327 55.7985 97.6004 39.4838 98.8294 27.6745C99.9901 16.4795 99.5803 6.51317 92.2747 2.14439C90.9775 1.39351 90.9776 0.915674 93.0259 0.847412C108.661 2.89528 106.408 37.8455 99.7852 58.4607Z" fill="url(#paint2_linear_63_456)"/>
<path d="M100.263 58.5972C105.043 43.6478 108.456 17.3668 101.014 5.76227C99.0342 2.6222 96.3714 0.84739 93.0942 0.369555C86.13 -0.517854 79.8485 4.67007 75.7519 9.17538L76.4347 9.78974C81.9651 3.64614 87.8369 0.6426 92.8893 1.32522C95.8252 1.7348 98.2831 3.37309 100.127 6.2401C104.087 12.452 104.496 22.623 104.155 30.1319C103.745 39.4838 101.97 49.7231 99.2391 58.2559C96.0983 68.0857 89.8169 73.888 78.6195 77.2328L78.3465 77.3011C77.5954 77.5059 76.8444 77.7106 76.0251 77.9154C75.752 77.9837 75.4105 78.052 75.1374 78.1202C75.0009 78.1202 74.8643 78.1885 74.7961 78.1885C74.5912 78.2567 74.3864 78.2567 74.1815 78.325H74.1133C61.1408 81.1238 44.7545 81.192 32.9426 80.4411L32.3281 80.3729C30.0067 80.2364 27.8219 80.0316 25.8419 79.8268L25.4322 79.7585C23.0425 79.4855 21.0625 79.2124 19.7652 78.9394C19.0825 78.8028 18.3315 78.6663 17.5804 78.5298C11.9818 77.4376 6.17824 76.2771 2.96925 72.1131C0.511298 68.9048 0.85263 65.3552 3.85679 62.693L3.24237 61.9421C-0.17145 64.9456 -0.581109 69.0414 2.21823 72.6593C5.63205 77.0963 11.6403 78.325 17.4438 79.4172C18.1949 79.5537 18.8777 79.6903 19.6287 79.8268C20.926 80.0998 22.9059 80.3729 25.2956 80.6459L7.95338 156.485H12.05L22.7012 117.985L38.8144 103.377L26.5929 156.485H30.6895L41.2723 117.985L53.6986 106.722L64.896 115.664L77.8685 156.417H81.9651L67.2856 102.695L83.5355 115.664L96.508 156.417H100.605L79.1658 78.1202C90.4997 74.7071 97.0542 68.6318 100.263 58.5972ZM62.3015 97.575L59.3656 95.254L55.0641 81.7381C56.9076 81.6699 58.6828 81.5333 60.3897 81.3968L64.3498 95.8001L62.3015 97.575ZM64.6228 96.8241L65.5105 100.169L63.0525 98.1893L64.6228 96.8241ZM40.6578 95.1175L31.0991 87.4721L32.7378 81.5333C36.0833 81.7381 39.7702 81.8746 43.662 81.9429L40.6578 95.1175ZM54.1083 81.7381L55.6786 86.7213L52.4014 89.6565L49.6704 87.4721L51.2407 81.8064C52.1965 81.8064 53.1525 81.8064 54.1083 81.7381ZM58.0683 94.1618L53.2207 90.2709L56.02 87.7452L58.0683 94.1618ZM49.3972 88.4961L51.7187 90.3392L47.9635 93.7523L49.3972 88.4961ZM47.4855 95.4588L52.4697 90.9535L58.5463 95.8001L59.8435 99.8276L53.6304 105.425L46.3248 99.5546L47.4855 95.4588ZM59.9118 96.8923L61.6187 98.2576L60.6629 99.145L59.9118 96.8923ZM61.3456 81.2603C65.0326 80.919 68.6512 80.4411 72.065 79.8268L74.2499 86.7213L65.1691 95.0493L61.3456 81.2603ZM11.2989 155.461H9.18239L26.3198 80.919C27.5487 81.0555 28.9143 81.192 30.3481 81.2603H30.4164C30.826 81.2603 31.304 81.3285 31.7136 81.3285H31.7819L11.2989 155.461ZM23.1791 116.211L30.826 88.4961L40.453 96.2097L39.1558 101.739L23.1791 116.211ZM29.9385 155.461H27.8219L44.7544 81.8746C46.5979 81.8746 48.4413 81.8746 50.2848 81.8064L29.9385 155.461ZM41.7502 116.211L46.0517 100.578L52.9476 106.039L41.7502 116.211ZM54.3814 106.108L60.1849 100.852L64.4181 114.026L54.3814 106.108ZM80.6678 155.461H78.5513L60.936 100.101L62.3698 98.8037L65.9884 101.671L80.6678 155.461ZM66.8077 101.193L65.4422 96.0732L74.6595 87.7452L83.0575 114.094L66.8077 101.193ZM78.2099 78.3933L99.3073 155.461H97.1908L73.0209 79.622C73.4988 79.4855 74.045 79.4172 74.5229 79.2807H74.5913C75.2058 79.1441 75.752 79.0076 76.2982 78.8711C76.6396 78.8028 77.0492 78.6663 77.3906 78.5981C77.5271 78.5981 77.6637 78.5298 77.732 78.5298C77.9368 78.4615 78.0733 78.4615 78.2099 78.3933Z" fill="#30358C"/>
<defs>
<linearGradient id="paint0_linear_63_456" x1="13.5971" y1="86.8608" x2="87.3468" y2="37.4703" gradientUnits="userSpaceOnUse">
<stop stop-color="#FF9B2B"/>
<stop offset="1" stop-color="#FEB840"/>
</linearGradient>
<linearGradient id="paint1_linear_63_456" x1="17.104" y1="94.2893" x2="104.316" y2="17.321" gradientUnits="userSpaceOnUse">
<stop stop-color="#FEB840"/>
<stop offset="0.2424" stop-color="#FEC65B"/>
<stop offset="0.4986" stop-color="#FFD06F"/>
<stop offset="0.7517" stop-color="#FFD77C"/>
<stop offset="0.996" stop-color="#FFD980"/>
</linearGradient>
<linearGradient id="paint2_linear_63_456" x1="1.15557" y1="41.1775" x2="104.827" y2="41.1775" gradientUnits="userSpaceOnUse">
<stop stop-color="#E68922"/>
<stop offset="0.3978" stop-color="#EA8C23"/>
<stop offset="0.8093" stop-color="#F79528"/>
<stop offset="1" stop-color="#FF9B2B"/>
</linearGradient>
</defs>
</svg>
